<svg xmlns="http://www.w3.org/2000/svg" aria-hidden="true" style="position:absolute;width:0;height:0;overflow:hidden">
  <defs>
    <symbol id="icon-menu" viewBox="0 0 68 32">
      <path stroke-linecap="round" stroke-linejoin="round" stroke-width="6" d="M4 4.333h60M4 27.667h60"/>
    </symbol>
    <symbol id="icon-facebook" viewBox="0 0 15 32">
      <path d="M12.16 1.92h1.28v4.8h-1.6c-.64 0-1.28 0-1.6.32-.32.32-.32.64-.32 1.387v1.707h3.52v4.053H9.92v17.6H4.48V14.08H1.6v-4.053h2.88V8.64c0-2.347.32-4.053.96-4.8.96-1.387 2.88-2.027 5.76-2.027.32.107.64.107.96.107z"/>
    </symbol>
    <symbol id="icon-instagram" viewBox="0 0 34 32">
      <path d="M32.897 9.445a11.557 11.557 0 0 0-.745-3.931A8.18 8.18 0 0 0 27.473.843a11.734 11.734 0 0 0-3.885-.745C21.879.022 21.337 0 16.997 0s-4.896 0-6.593.098a11.763 11.763 0 0 0-3.883.745 8.18 8.18 0 0 0-4.679 4.671 11.621 11.621 0 0 0-.745 3.876c-.076 1.708-.1 2.249-.1 6.582s0 4.886.1 6.582a11.68 11.68 0 0 0 .745 3.88 8.18 8.18 0 0 0 4.681 4.669c1.237.482 2.55.756 3.883.798 1.711.076 2.253.099 6.593.099s4.896 0 6.593-.099a11.756 11.756 0 0 0 3.885-.743 8.198 8.198 0 0 0 4.679-4.671c.467-1.242.718-2.551.744-3.88.076-1.707.1-2.248.1-6.582-.004-4.332-.004-4.882-.103-6.58zM16.988 24.164c-4.538 0-8.215-3.671-8.215-8.201s3.677-8.201 8.215-8.201c4.535 0 8.215 3.67 8.215 8.201s-3.68 8.201-8.215 8.201zM25.53 9.37a1.912 1.912 0 1 1 0-3.824 1.912 1.912 0 1 1 0 3.824z"/>
    </symbol>
    <symbol id="icon-youtube" viewBox="0 0 43 32">
      <path d="M33.486 1.714c-1.943-.114-5.943-.229-12-.229h-.8c-5.829 0-9.714.114-11.657.343-2.629.229-4.457.914-5.486 1.829-.914.8-1.6 2.286-1.829 4.229-.114 1.257-.229 3.886-.229 7.886v.571c0 3.771.114 6.4.343 7.657.343 1.829.914 3.2 2.057 4 1.143.914 3.086 1.486 5.829 1.714 1.943.114 5.943.229 12 .229h.8c5.829 0 9.714-.114 11.657-.343 2.629-.229 4.457-.914 5.486-1.829.914-.8 1.6-2.286 1.829-4.229.114-1.257.229-3.886.229-7.886v-.571c0-3.771-.114-6.4-.343-7.657-.343-1.829-.914-3.2-2.057-4-1.143-.914-3.086-1.486-5.829-1.714zm-4.458 14.057-12.571 7.543V8.228l12.571 7.543z"/>
    </symbol>
  </defs>
</svg>
